<svg width="20" height="20" viewBox="0 0 20 20" fill="none" xmlns="http://www.w3.org/2000/svg">
<path d="M6.66667 19.4333V14.8333L3.23333 17.3667C4.2 18.2667 5.36667 18.9667 6.66667 19.4333Z" fill="#2A5F9E"/>
<path d="M13.3333 19.4333C14.6333 18.9667 15.8 18.2667 16.7667 17.3667L13.3333 14.8V19.4333Z" fill="#2A5F9E"/>
<path d="M0.566667 13.3333C0.666667 13.6667 0.8 13.9667 0.966667 14.3L2.26667 13.3333H0.566667Z" fill="#2A5F9E"/>
<path d="M17.7333 13.3333L19.0333 14.3C19.1667 14 19.3 13.6667 19.4333 13.3333H17.7333Z" fill="#2A5F9E"/>
<path d="M0.2 12C0.3 12.4667 0.433333 12.9 0.566667 13.3333H2.26667L0.966667 14.3C1.23333 14.8667 1.53333 15.3667 1.9 15.8667L5.33333 13.3333H6.66667V14L2.76667 16.8667L3.23333 17.3333L6.66667 14.8333V19.4333C7.1 19.6 7.53333 19.7 8 19.8V12H0.2Z" fill="white"/>
<path d="M19.8 12H12V19.8C12.4667 19.7 12.9 19.5667 13.3333 19.4333V14.8333L16.7667 17.3333C17.2333 16.9 17.6333 16.4333 18.0333 15.9333L14.4667 13.3333H16.7333L18.7667 14.8333C18.8667 14.6667 18.9667 14.4667 19.0333 14.3L17.7333 13.3333H19.4333C19.5667 12.9 19.7 12.4667 19.8 12Z" fill="white"/>
<path d="M1.9 15.8667C2.16667 16.2333 2.43333 16.5667 2.73333 16.9L6.66667 14.0333V13.3667H5.33333L1.9 15.8667Z" fill="#ED4C5C"/>
<path d="M14.5 13.3333L18.0667 15.9333C18.2 15.7667 18.3 15.6 18.4333 15.4333C18.4667 15.4 18.4667 15.3667 18.5 15.3667C18.6 15.2 18.7333 15 18.8333 14.8333L16.7333 13.3333H14.5Z" fill="#ED4C5C"/>
<path d="M13.3333 0.566667V5.16667L16.7667 2.63333C15.8 1.73333 14.6333 1.03333 13.3333 0.566667Z" fill="#2A5F9E"/>
<path d="M6.66667 0.566667C5.36667 1.03333 4.2 1.73333 3.23333 2.63333L6.66667 5.2V0.566667Z" fill="#2A5F9E"/>
<path d="M19.4333 6.66667C19.3333 6.33333 19.2 6.03333 19.0333 5.7L17.7333 6.66667H19.4333Z" fill="#2A5F9E"/>
<path d="M2.26667 6.66667L0.966667 5.7C0.833333 6.03333 0.7 6.33333 0.566667 6.66667H2.26667Z" fill="#2A5F9E"/>
<path d="M19.7667 8C19.6667 7.53333 19.5333 7.1 19.4 6.66667H17.7L19 5.7C18.7333 5.13333 18.4333 4.63333 18.0667 4.13333L14.6667 6.66667H13.3333V6L17.2333 3.13333L16.7667 2.66667L13.3333 5.16667V0.566667C12.9 0.4 12.4667 0.3 12 0.2V8H19.7667Z" fill="white"/>
<path d="M0.2 8H8V0.2C7.53333 0.3 7.1 0.433333 6.66667 0.566667V5.16667L3.23333 2.66667C2.76667 3.1 2.36667 3.56667 1.96667 4.06667L5.53333 6.66667H3.26667L1.23333 5.16667C1.13333 5.33333 1.03333 5.53333 0.966667 5.7L2.26667 6.66667H0.566667C0.433333 7.1 0.3 7.53333 0.2 8Z" fill="white"/>
<path d="M18.1 4.13333C17.8333 3.76667 17.5667 3.43333 17.2667 3.1L13.3333 5.96667V6.63333H14.6667L18.1 4.13333Z" fill="#ED4C5C"/>
<path d="M5.5 6.66667L1.96667 4.06667C1.83333 4.23333 1.73333 4.4 1.6 4.56667C1.56667 4.6 1.56667 4.63333 1.53333 4.63333C1.43333 4.8 1.3 5 1.2 5.16667L3.23333 6.66667H5.5Z" fill="#ED4C5C"/>
<path d="M19.8 8H12V0.2C11.3667 0.0666667 10.7 0 10 0C9.3 0 8.63333 0.0666667 8 0.2V8H0.2C0.0666667 8.63333 0 9.3 0 10C0 10.7 0.0666667 11.3667 0.2 12H8V19.8C8.63333 19.9333 9.3 20 10 20C10.7 20 11.3667 19.9333 12 19.8V12H19.8C19.9333 11.3667 20 10.7 20 10C20 9.3 19.9333 8.63333 19.8 8Z" fill="#ED4C5C"/>
</svg>
