<svg width="24" height="22" viewBox="0 0 24 22" fill="none" xmlns="http://www.w3.org/2000/svg">
<path d="M16.6045 0C13.753 0 11.4415 2.42722 11.4415 5.42135C11.4415 5.87379 11.4943 6.31329 11.5937 6.73342C8.85198 6.73342 4.72231 6.17909 1.27337 2.72369C0.814751 2.26421 -0.030939 2.57142 0.000872623 3.21984C0.512005 13.6383 4.97389 16.6773 7.27164 16.8664C5.78789 18.3319 3.63256 19.4886 1.46373 20.0077C0.89134 20.1448 0.749941 20.7714 1.30965 20.9534C2.86155 21.4582 5.08286 21.6526 6.27852 21.6854C14.737 21.6854 21.6118 14.566 21.7648 5.72264C22.8753 5.00045 23.5867 3.43239 23.9864 2.32157C24.0837 2.05103 23.6403 1.73582 23.3749 1.84632C22.5453 2.19168 21.4921 2.27356 20.595 1.98124C19.6481 0.771547 18.2121 0 16.6045 0Z" fill="#8F97AB"/>
</svg>
