<svg width="7" height="8" viewBox="0 0 7 8" fill="none" xmlns="http://www.w3.org/2000/svg">
<path fill-rule="evenodd" clip-rule="evenodd" d="M3.68984 5.48809C3.6479 6.09898 3.47949 6.68975 3.20027 7.25077C3.59122 7.13585 3.95931 7.00622 4.30043 6.86322C5.04652 6.55044 5.69918 6.15883 6.17669 5.68554C6.65698 5.20951 6.99983 4.60708 6.99983 3.90447C6.99983 3.20186 6.65698 2.59943 6.17669 2.1234C5.69918 1.65011 5.04652 1.2585 4.30043 0.945722C3.12931 0.454766 1.64031 0.121455 0 0C0.955014 0.540667 1.7603 1.17979 2.37326 1.89118C2.86834 2.01684 3.32006 2.16576 3.71888 2.33295C4.35559 2.59987 4.82197 2.89853 5.1178 3.19174C5.41085 3.4822 5.49564 3.72249 5.49564 3.90447C5.49564 4.08645 5.41085 4.32674 5.1178 4.6172C4.82197 4.91041 4.35559 5.20907 3.71888 5.47599C3.70923 5.48003 3.69955 5.48407 3.68984 5.48809Z" fill="#8F97AB"/>
</svg>
