<svg width="16" height="12" viewBox="0 0 16 12" fill="none" xmlns="http://www.w3.org/2000/svg">
<path fill-rule="evenodd" clip-rule="evenodd" d="M9.49204 7.62456L13.7541 3.17342C14.0054 2.91276 14.4043 3.09737 14.4043 3.4656V5.37848C14.4043 5.83524 14.7921 6.61988 15.2325 6.61988H15.2173C15.6585 6.61988 16 5.83524 16 5.37848V1.2414C16 0.327028 15.3458 0 14.465 0H10.4758C10.0354 0 9.61731 0.163926 9.61731 0.620699V0.724214C9.61731 1.18099 10.0354 1.65507 10.4758 1.65507H12.4265C12.7823 1.65507 12.9602 1.89402 12.7089 2.15467L8.92877 5.97105C8.61761 6.29459 8.11259 6.2426 7.80063 5.91988L7.47192 5.55231C6.84881 4.90605 5.83875 4.89354 5.21484 5.53981L0.190869 10.5925C-0.121085 10.9152 0.0432619 11.4358 0.0432619 11.7593V11.7577C0.841099 12.0813 1.00705 12.0805 1.31901 11.757L5.70552 7.28354C6.01747 6.95999 6.5592 6.95999 6.87115 7.28354L7.21582 7.6226C7.83813 8.27053 8.86813 8.27165 9.49204 7.62456Z" fill="#06806B"/>
</svg>
