<svg width="216" height="60" viewBox="0 0 216 60" fill="none" xmlns="http://www.w3.org/2000/svg">
<path d="M60.1653 30C60.1653 46.5685 46.6968 60 30.0826 60C13.4685 60 0 46.5685 0 30C0 13.4315 13.4685 0 30.0826 0C46.6968 0 60.1653 13.4315 60.1653 30Z" fill="#EAEFFC"/>
<path d="M96.914 22.8409C96.914 25.1918 96.4724 27.2053 95.5893 28.8814C94.7133 30.5504 93.5169 31.8288 91.9999 32.7166C90.4901 33.6044 88.7773 34.0483 86.8615 34.0483C84.9457 34.0483 83.2294 33.6044 81.7124 32.7166C80.2026 31.8217 79.0061 30.5398 78.123 28.8707C77.247 27.1946 76.809 25.1847 76.809 22.8409C76.809 20.4901 77.247 18.4801 78.123 16.8111C79.0061 15.1349 80.2026 13.853 81.7124 12.9652C83.2294 12.0774 84.9457 11.6335 86.8615 11.6335C88.7773 11.6335 90.4901 12.0774 91.9999 12.9652C93.5169 13.853 94.7133 15.1349 95.5893 16.8111C96.4724 18.4801 96.914 20.4901 96.914 22.8409ZM92.9293 22.8409C92.9293 21.1861 92.6694 19.7905 92.1495 18.6541C91.6367 17.5107 90.9245 16.6477 90.0129 16.0653C89.1013 15.4759 88.0508 15.1811 86.8615 15.1811C85.6721 15.1811 84.6217 15.4759 83.7101 16.0653C82.7985 16.6477 82.0827 17.5107 81.5629 18.6541C81.0501 19.7905 80.7937 21.1861 80.7937 22.8409C80.7937 24.4957 81.0501 25.8949 81.5629 27.0384C82.0827 28.1747 82.7985 29.0376 83.7101 29.6271C84.6217 30.2095 85.6721 30.5007 86.8615 30.5007C88.0508 30.5007 89.1013 30.2095 90.0129 29.6271C90.9245 29.0376 91.6367 28.1747 92.1495 27.0384C92.6694 25.8949 92.9293 24.4957 92.9293 22.8409Z" fill="white"/>
<path d="M100.49 33.75V17.3864H104.24V20.1136H104.411C104.71 19.169 105.222 18.4411 105.949 17.9297C106.682 17.4112 107.519 17.152 108.459 17.152C108.673 17.152 108.912 17.1626 109.175 17.1839C109.446 17.1982 109.67 17.223 109.848 17.2585V20.8061C109.684 20.7493 109.424 20.6996 109.068 20.657C108.719 20.6072 108.381 20.5824 108.053 20.5824C107.348 20.5824 106.715 20.7351 106.152 21.0405C105.596 21.3388 105.158 21.7543 104.838 22.2869C104.517 22.8196 104.357 23.434 104.357 24.13V33.75H100.49Z" fill="white"/>
<path d="M115.943 28.6151L115.932 23.9595H116.552L122.448 17.3864H126.967L119.714 25.4403H118.912L115.943 28.6151ZM112.417 33.75V11.9318H116.284V33.75H112.417ZM122.716 33.75L117.374 26.3033L119.981 23.5866L127.341 33.75H122.716Z" fill="white"/>
<path d="M136.133 34.0696C134.488 34.0696 133.067 33.7287 131.871 33.0469C130.681 32.358 129.766 31.3849 129.125 30.1278C128.484 28.8636 128.164 27.3757 128.164 25.6641C128.164 23.9808 128.484 22.5036 129.125 21.2322C129.773 19.9538 130.678 18.9595 131.839 18.2493C132.999 17.532 134.363 17.1733 135.93 17.1733C136.941 17.1733 137.896 17.3366 138.793 17.6634C139.698 17.983 140.495 18.4801 141.186 19.1548C141.884 19.8295 142.432 20.6889 142.831 21.733C143.23 22.7699 143.429 24.0057 143.429 25.4403V26.6229H129.98V24.0234H139.722C139.715 23.2848 139.555 22.6278 139.242 22.0526C138.928 21.4702 138.49 21.0121 137.928 20.6783C137.372 20.3445 136.724 20.1776 135.983 20.1776C135.193 20.1776 134.499 20.3693 133.9 20.7528C133.302 21.1293 132.836 21.6264 132.501 22.2443C132.173 22.8551 132.006 23.5263 131.999 24.2578V26.527C131.999 27.4787 132.173 28.2955 132.522 28.9773C132.871 29.652 133.359 30.1705 133.986 30.5327C134.613 30.8878 135.346 31.0653 136.186 31.0653C136.749 31.0653 137.258 30.9872 137.714 30.831C138.17 30.6676 138.565 30.4297 138.9 30.1172C139.235 29.8047 139.487 29.4176 139.658 28.956L143.269 29.3608C143.041 30.3125 142.607 31.1435 141.966 31.8537C141.332 32.5568 140.52 33.1037 139.53 33.4943C138.54 33.8778 137.408 34.0696 136.133 34.0696Z" fill="white"/>
<path d="M150.568 24.1619V33.75H146.701V17.3864H150.397V20.1669H150.589C150.967 19.2507 151.569 18.5227 152.395 17.983C153.228 17.4432 154.257 17.1733 155.482 17.1733C156.615 17.1733 157.601 17.4148 158.441 17.8977C159.289 18.3807 159.944 19.0803 160.407 19.9964C160.877 20.9126 161.108 22.0241 161.101 23.331V33.75H157.234V23.9276C157.234 22.8338 156.949 21.978 156.38 21.3601C155.817 20.7422 155.037 20.4332 154.04 20.4332C153.363 20.4332 152.762 20.5824 152.235 20.8807C151.715 21.1719 151.305 21.5945 151.006 22.1484C150.714 22.7024 150.568 23.3736 150.568 24.1619Z" fill="white"/>
<path d="M171.122 34.0376C169.833 34.0376 168.679 33.7074 167.661 33.0469C166.642 32.3864 165.837 31.4276 165.246 30.1705C164.655 28.9134 164.36 27.3864 164.36 25.5895C164.36 23.7713 164.659 22.2372 165.257 20.9872C165.862 19.7301 166.678 18.782 167.703 18.1428C168.729 17.4964 169.872 17.1733 171.132 17.1733C172.094 17.1733 172.884 17.3366 173.504 17.6634C174.124 17.983 174.615 18.37 174.978 18.8246C175.341 19.272 175.623 19.6946 175.822 20.0923H175.982V11.9318H179.86V33.75H176.057V31.1719H175.822C175.623 31.5696 175.334 31.9922 174.957 32.4396C174.579 32.88 174.081 33.2564 173.461 33.5689C172.842 33.8814 172.062 34.0376 171.122 34.0376ZM172.201 30.8736C173.02 30.8736 173.718 30.6534 174.295 30.2131C174.871 29.7656 175.309 29.1442 175.608 28.3487C175.908 27.5533 176.057 26.6264 176.057 25.5682C176.057 24.5099 175.908 23.5902 175.608 22.8089C175.316 22.0277 174.882 21.4205 174.305 20.9872C173.735 20.554 173.034 20.3374 172.201 20.3374C171.339 20.3374 170.62 20.5611 170.043 21.0085C169.466 21.456 169.031 22.0739 168.739 22.8622C168.447 23.6506 168.301 24.5526 168.301 25.5682C168.301 26.5909 168.447 27.5036 168.739 28.3061C169.039 29.1016 169.477 29.7301 170.053 30.1918C170.637 30.6463 171.353 30.8736 172.201 30.8736Z" fill="white"/>
<path d="M191.245 34.0696C189.6 34.0696 188.179 33.7287 186.983 33.0469C185.794 32.358 184.878 31.3849 184.238 30.1278C183.597 28.8636 183.276 27.3757 183.276 25.6641C183.276 23.9808 183.597 22.5036 184.238 21.2322C184.886 19.9538 185.79 18.9595 186.951 18.2493C188.112 17.532 189.476 17.1733 191.042 17.1733C192.054 17.1733 193.008 17.3366 193.905 17.6634C194.81 17.983 195.607 18.4801 196.298 19.1548C196.996 19.8295 197.545 20.6889 197.943 21.733C198.342 22.7699 198.542 24.0057 198.542 25.4403V26.6229H185.092V24.0234H194.835C194.828 23.2848 194.667 22.6278 194.354 22.0526C194.041 21.4702 193.603 21.0121 193.04 20.6783C192.485 20.3445 191.837 20.1776 191.096 20.1776C190.305 20.1776 189.611 20.3693 189.013 20.7528C188.414 21.1293 187.948 21.6264 187.613 22.2443C187.286 22.8551 187.118 23.5263 187.111 24.2578V26.527C187.111 27.4787 187.286 28.2955 187.635 28.9773C187.984 29.652 188.471 30.1705 189.098 30.5327C189.725 30.8878 190.458 31.0653 191.299 31.0653C191.861 31.0653 192.371 30.9872 192.826 30.831C193.282 30.6676 193.678 30.4297 194.012 30.1172C194.347 29.8047 194.6 29.4176 194.771 28.956L198.381 29.3608C198.154 30.3125 197.719 31.1435 197.078 31.8537C196.444 32.5568 195.632 33.1037 194.643 33.4943C193.653 33.8778 192.52 34.0696 191.245 34.0696Z" fill="white"/>
<path d="M203.747 39.8864C203.22 39.8864 202.732 39.8438 202.283 39.7585C201.842 39.6804 201.489 39.5881 201.226 39.4815L202.123 36.4773C202.686 36.6406 203.188 36.7188 203.629 36.7116C204.071 36.7045 204.459 36.5661 204.794 36.2962C205.136 36.0334 205.424 35.593 205.659 34.9751L205.99 34.0909L200.04 17.3864H204.142L207.924 29.7443H208.095L211.887 17.3864H216L209.43 35.7315C209.124 36.598 208.718 37.3402 208.212 37.9581C207.707 38.5831 207.087 39.0589 206.353 39.3857C205.627 39.7195 204.758 39.8864 203.747 39.8864Z" fill="white"/>
<path d="M77.4144 43.4091V52.5H76.3105V43.4091H77.4144Z" fill="#8F97AB"/>
<path d="M80.5357 48.3984V52.5H79.4853V45.6818H80.5001V46.7472H80.5892C80.7494 46.4009 80.9927 46.1228 81.3191 45.9126C81.6456 45.6996 82.0669 45.593 82.5833 45.593C83.0462 45.593 83.4513 45.6877 83.7984 45.8771C84.1456 46.0636 84.4157 46.3477 84.6085 46.7294C84.8014 47.1082 84.8979 47.5876 84.8979 48.1676V52.5H83.8474V48.2386C83.8474 47.703 83.7079 47.2857 83.429 46.9869C83.1501 46.685 82.7673 46.5341 82.2806 46.5341C81.9453 46.5341 81.6456 46.6066 81.3815 46.7516C81.1203 46.8966 80.9141 47.1082 80.7628 47.3864C80.6114 47.6645 80.5357 48.0019 80.5357 48.3984Z" fill="#8F97AB"/>
<path d="M92.1633 45.6818L89.635 52.5H88.5667L86.0385 45.6818H87.178L89.0653 51.1151H89.1365L91.0238 45.6818H92.1633Z" fill="#8F97AB"/>
<path d="M96.1715 52.642C95.5127 52.642 94.9445 52.497 94.4667 52.207C93.9919 51.9141 93.6255 51.5057 93.3673 50.9819C93.1121 50.4551 92.9845 49.8426 92.9845 49.1442C92.9845 48.4458 93.1121 47.8303 93.3673 47.2976C93.6255 46.762 93.9845 46.3447 94.4445 46.0458C94.9074 45.744 95.4475 45.593 96.0647 45.593C96.4208 45.593 96.7724 45.6522 97.1196 45.7706C97.4668 45.889 97.7828 46.0813 98.0677 46.3477C98.3526 46.611 98.5796 46.9602 98.7487 47.3952C98.9179 47.8303 99.0024 48.3659 99.0024 49.0021V49.446H93.7323V48.5405H97.9342C97.9342 48.1558 97.857 47.8125 97.7027 47.5107C97.5514 47.2088 97.3348 46.9706 97.0528 46.796C96.7739 46.6214 96.4445 46.5341 96.0647 46.5341C95.6463 46.5341 95.2843 46.6377 94.9786 46.8448C94.6759 47.049 94.443 47.3153 94.2798 47.6438C94.1166 47.9723 94.035 48.3245 94.035 48.7003V49.304C94.035 49.8189 94.124 50.2554 94.302 50.6135C94.483 50.9686 94.7338 51.2393 95.0543 51.4258C95.3748 51.6093 95.7472 51.701 96.1715 51.701C96.4475 51.701 96.6968 51.6625 96.9193 51.5856C97.1448 51.5057 97.3392 51.3873 97.5024 51.2305C97.6656 51.0707 97.7917 50.8724 97.8808 50.6357L98.8956 50.9197C98.7888 51.263 98.6093 51.5649 98.357 51.8253C98.1048 52.0827 97.7932 52.284 97.4223 52.429C97.0514 52.571 96.6344 52.642 96.1715 52.642Z" fill="#8F97AB"/>
<path d="M105.443 47.2088L104.5 47.4751C104.44 47.3183 104.353 47.1659 104.237 47.0179C104.124 46.867 103.97 46.7427 103.774 46.6451C103.578 46.5474 103.327 46.4986 103.022 46.4986C102.603 46.4986 102.255 46.5948 101.976 46.7871C101.7 46.9765 101.562 47.2177 101.562 47.5107C101.562 47.7711 101.657 47.9767 101.847 48.1277C102.037 48.2786 102.333 48.4044 102.737 48.505L103.752 48.7536C104.363 48.9015 104.819 49.1279 105.118 49.4327C105.418 49.7346 105.568 50.1237 105.568 50.6001C105.568 50.9908 105.455 51.34 105.23 51.6477C105.007 51.9555 104.695 52.1982 104.295 52.3757C103.894 52.5533 103.428 52.642 102.897 52.642C102.2 52.642 101.623 52.4911 101.166 52.1893C100.709 51.8874 100.419 51.4465 100.298 50.8665L101.295 50.6179C101.39 50.9849 101.569 51.2601 101.833 51.4435C102.1 51.627 102.449 51.7188 102.879 51.7188C103.369 51.7188 103.758 51.6152 104.046 51.408C104.336 51.1979 104.482 50.9464 104.482 50.6534C104.482 50.4167 104.399 50.2184 104.233 50.0586C104.066 49.8958 103.811 49.7745 103.467 49.6946L102.327 49.4283C101.701 49.2803 101.241 49.051 100.948 48.7402C100.657 48.4266 100.511 48.0344 100.511 47.5639C100.511 47.1792 100.62 46.8389 100.836 46.543C101.056 46.247 101.354 46.0147 101.731 45.8461C102.111 45.6774 102.541 45.593 103.022 45.593C103.698 45.593 104.23 45.741 104.615 46.0369C105.004 46.3329 105.28 46.7235 105.443 47.2088Z" fill="#8F97AB"/>
<path d="M110.123 45.6818V46.5696H106.579V45.6818H110.123ZM107.612 44.0483H108.663V50.5469C108.663 50.8428 108.706 51.0647 108.792 51.2127C108.881 51.3577 108.993 51.4554 109.13 51.5057C109.269 51.553 109.416 51.5767 109.571 51.5767C109.686 51.5767 109.781 51.5708 109.855 51.5589C109.93 51.5442 109.989 51.5323 110.034 51.5234L110.247 52.4645C110.176 52.4911 110.077 52.5178 109.949 52.5444C109.821 52.574 109.66 52.5888 109.464 52.5888C109.167 52.5888 108.876 52.5252 108.591 52.3979C108.309 52.2707 108.075 52.0768 107.888 51.8164C107.704 51.556 107.612 51.2275 107.612 50.831V44.0483Z" fill="#8F97AB"/>
<path d="M111.703 52.5V45.6818H112.718V46.7472H112.807C112.949 46.3832 113.179 46.1006 113.496 45.8993C113.814 45.6951 114.195 45.593 114.64 45.593C115.091 45.593 115.467 45.6951 115.767 45.8993C116.069 46.1006 116.305 46.3832 116.474 46.7472H116.546C116.721 46.395 116.983 46.1154 117.333 45.9082C117.684 45.6981 118.103 45.593 118.593 45.593C119.204 45.593 119.704 45.7839 120.093 46.1657C120.482 46.5444 120.676 47.1348 120.676 47.9368V52.5H119.626V47.9368C119.626 47.4337 119.488 47.0742 119.212 46.8581C118.936 46.6421 118.611 46.5341 118.237 46.5341C117.756 46.5341 117.384 46.6791 117.12 46.9691C116.856 47.2562 116.724 47.6201 116.724 48.0611V52.5H115.655V47.8303C115.655 47.4426 115.529 47.1304 115.277 46.8936C115.025 46.6539 114.7 46.5341 114.302 46.5341C114.029 46.5341 113.774 46.6066 113.537 46.7516C113.302 46.8966 113.112 47.0978 112.967 47.3553C112.824 47.6098 112.753 47.9042 112.753 48.2386V52.5H111.703Z" fill="#8F97AB"/>
<path d="M125.463 52.642C124.805 52.642 124.236 52.497 123.759 52.207C123.284 51.9141 122.917 51.5057 122.659 50.9819C122.404 50.4551 122.276 49.8426 122.276 49.1442C122.276 48.4458 122.404 47.8303 122.659 47.2976C122.917 46.762 123.276 46.3447 123.736 46.0458C124.199 45.744 124.739 45.593 125.357 45.593C125.713 45.593 126.064 45.6522 126.412 45.7706C126.759 45.889 127.075 46.0813 127.36 46.3477C127.644 46.611 127.871 46.9602 128.041 47.3952C128.21 47.8303 128.294 48.3659 128.294 49.0021V49.446H123.024V48.5405H127.226C127.226 48.1558 127.149 47.8125 126.995 47.5107C126.843 47.2088 126.627 46.9706 126.345 46.796C126.066 46.6214 125.736 46.5341 125.357 46.5341C124.938 46.5341 124.576 46.6377 124.271 46.8448C123.968 47.049 123.735 47.3153 123.572 47.6438C123.408 47.9723 123.327 48.3245 123.327 48.7003V49.304C123.327 49.8189 123.416 50.2554 123.594 50.6135C123.775 50.9686 124.026 51.2393 124.346 51.4258C124.667 51.6093 125.039 51.701 125.463 51.701C125.739 51.701 125.989 51.6625 126.211 51.5856C126.437 51.5057 126.631 51.3873 126.794 51.2305C126.958 51.0707 127.084 50.8724 127.173 50.6357L128.188 50.9197C128.081 51.263 127.901 51.5649 127.649 51.8253C127.397 52.0827 127.085 52.284 126.714 52.429C126.343 52.571 125.926 52.642 125.463 52.642Z" fill="#8F97AB"/>
<path d="M130.943 48.3984V52.5H129.892V45.6818H130.907V46.7472H130.996C131.156 46.4009 131.4 46.1228 131.726 45.9126C132.053 45.6996 132.474 45.593 132.99 45.593C133.453 45.593 133.858 45.6877 134.205 45.8771C134.553 46.0636 134.823 46.3477 135.016 46.7294C135.208 47.1082 135.305 47.5876 135.305 48.1676V52.5H134.254V48.2386C134.254 47.703 134.115 47.2857 133.836 46.9869C133.557 46.685 133.174 46.5341 132.688 46.5341C132.352 46.5341 132.053 46.6066 131.788 46.7516C131.527 46.8966 131.321 47.1082 131.17 47.3864C131.018 47.6645 130.943 48.0019 130.943 48.3984Z" fill="#8F97AB"/>
<path d="M140.198 45.6818V46.5696H136.655V45.6818H140.198ZM137.687 44.0483H138.738V50.5469C138.738 50.8428 138.781 51.0647 138.867 51.2127C138.956 51.3577 139.069 51.4554 139.205 51.5057C139.345 51.553 139.492 51.5767 139.646 51.5767C139.762 51.5767 139.857 51.5708 139.931 51.5589C140.005 51.5442 140.064 51.5323 140.109 51.5234L140.322 52.4645C140.251 52.4911 140.152 52.5178 140.024 52.5444C139.897 52.574 139.735 52.5888 139.539 52.5888C139.242 52.5888 138.952 52.5252 138.667 52.3979C138.385 52.2707 138.15 52.0768 137.963 51.8164C137.779 51.556 137.687 51.2275 137.687 50.831V44.0483Z" fill="#8F97AB"/>
<path d="M145.446 52.5V43.4091H146.55V51.5234H150.787V52.5H145.446Z" fill="#8F97AB"/>
<path d="M152.496 52.5V43.4091H153.6V51.5234H157.838V52.5H152.496Z" fill="#8F97AB"/>
<path d="M166.527 46.25H165.424C165.358 45.9334 165.244 45.6552 165.081 45.4155C164.921 45.1758 164.725 44.9745 164.493 44.8118C164.265 44.6461 164.011 44.5218 163.732 44.4389C163.453 44.3561 163.162 44.3146 162.86 44.3146C162.308 44.3146 161.808 44.4537 161.36 44.7319C160.915 45.0101 160.56 45.4199 160.296 45.9615C160.035 46.503 159.904 47.1674 159.904 47.9545C159.904 48.7417 160.035 49.4061 160.296 49.9476C160.56 50.4892 160.915 50.899 161.36 51.1772C161.808 51.4554 162.308 51.5945 162.86 51.5945C163.162 51.5945 163.453 51.553 163.732 51.4702C164.011 51.3873 164.265 51.2645 164.493 51.1017C164.725 50.936 164.921 50.7333 165.081 50.4936C165.244 50.2509 165.358 49.9728 165.424 49.6591H166.527C166.444 50.1237 166.293 50.5395 166.073 50.9064C165.854 51.2734 165.581 51.5856 165.254 51.843C164.928 52.0975 164.562 52.2914 164.155 52.4245C163.751 52.5577 163.32 52.6243 162.86 52.6243C162.082 52.6243 161.391 52.4349 160.786 52.0561C160.18 51.6773 159.704 51.1387 159.357 50.4403C159.01 49.742 158.836 48.9134 158.836 47.9545C158.836 46.9957 159.01 46.1671 159.357 45.4688C159.704 44.7704 160.18 44.2318 160.786 43.853C161.391 43.4742 162.082 43.2848 162.86 43.2848C163.32 43.2848 163.751 43.3514 164.155 43.4846C164.562 43.6177 164.928 43.813 165.254 44.0705C165.581 44.325 165.854 44.6357 166.073 45.0027C166.293 45.3667 166.444 45.7824 166.527 46.25Z" fill="#8F97AB"/>
</svg>
