<svg width="22" height="26" viewBox="0 0 22 26" fill="none" xmlns="http://www.w3.org/2000/svg">
<path d="M16.8235 6.88235V6.11765H15.2941V6.88235H16.8235ZM6.62745 6.88235V6.11765H5.09804V6.88235H6.62745ZM10.9608 0.764706L11.2198 0.0452038C11.0524 -0.0150679 10.8692 -0.0150679 10.7018 0.0452038L10.9608 0.764706ZM0.764706 4.43529L0.505685 3.71579C0.202282 3.82502 0 4.11283 0 4.43529C0 4.75776 0.202282 5.04557 0.505685 5.1548L0.764706 4.43529ZM10.9608 8.10588L10.7018 8.82538C10.8692 8.88566 11.0524 8.88566 11.2198 8.82538L10.9608 8.10588ZM21.1569 4.43529L21.4159 5.1548C21.7193 5.04557 21.9216 4.75776 21.9216 4.43529C21.9216 4.11283 21.7193 3.82502 21.4159 3.71579L21.1569 4.43529ZM11.867 19.1248L11.3344 18.5761L11.3344 18.5761L11.867 19.1248ZM13.8916 17.1595L14.4242 17.7082H14.4242L13.8916 17.1595ZM15.0877 16.8469L15.2954 16.111L15.0877 16.8469ZM8.02998 17.1595L8.56262 16.6108L8.02998 17.1595ZM10.0546 19.1248L10.5872 18.5761L10.0546 19.1248ZM6.83392 16.8469L6.62616 16.111L6.83392 16.8469ZM20.3922 25.2353C20.3922 25.6576 20.7345 26 21.1569 26C21.5792 26 21.9216 25.6576 21.9216 25.2353H20.3922ZM0 25.2353C0 25.6576 0.34237 26 0.764706 26C1.18704 26 1.52941 25.6576 1.52941 25.2353H0ZM15.2941 6.88235V9.32941H16.8235V6.88235H15.2941ZM6.62745 9.32941V6.88235H5.09804V9.32941H6.62745ZM10.9608 13.4588C8.53783 13.4588 6.62745 11.5809 6.62745 9.32941H5.09804C5.09804 12.4838 7.7526 14.9882 10.9608 14.9882V13.4588ZM15.2941 9.32941C15.2941 11.5809 13.3837 13.4588 10.9608 13.4588V14.9882C14.169 14.9882 16.8235 12.4838 16.8235 9.32941H15.2941ZM10.7018 0.0452038L0.505685 3.71579L1.02373 5.1548L11.2198 1.48421L10.7018 0.0452038ZM11.2198 8.82538L21.4159 5.1548L20.8978 3.71579L10.7018 7.38638L11.2198 8.82538ZM10.7018 1.48421L20.8978 5.1548L21.4159 3.71579L11.2198 0.0452038L10.7018 1.48421ZM11.2198 7.38638L1.02373 3.71579L0.505685 5.1548L10.7018 8.82538L11.2198 7.38638ZM12.3996 19.6735L14.4242 17.7082L13.3589 16.6108L11.3344 18.5761L12.3996 19.6735ZM14.8799 17.5829C18.3394 18.5595 20.3922 20.6591 20.3922 22.7882H21.9216C21.9216 19.6143 18.9863 17.1529 15.2954 16.111L14.8799 17.5829ZM7.49734 17.7082L9.52193 19.6735L10.5872 18.5761L8.56262 16.6108L7.49734 17.7082ZM1.52941 22.7882C1.52941 20.6591 3.5822 18.5595 7.04168 17.5829L6.62616 16.111C2.93529 17.1529 0 19.6143 0 22.7882H1.52941ZM20.3922 22.7882V25.2353H21.9216V22.7882H20.3922ZM0 22.7882V25.2353H1.52941V22.7882H0ZM8.56262 16.6108C8.06575 16.1285 7.33064 15.9121 6.62616 16.111L7.04168 17.5829C7.19063 17.5408 7.36869 17.5833 7.49734 17.7082L8.56262 16.6108ZM14.4242 17.7082C14.5529 17.5833 14.7309 17.5408 14.8799 17.5829L15.2954 16.111C14.5909 15.9121 13.8558 16.1285 13.3589 16.6108L14.4242 17.7082ZM11.3344 18.5761C11.1322 18.7724 10.7894 18.7724 10.5872 18.5761L9.52193 19.6735C10.3175 20.4458 11.6041 20.4458 12.3996 19.6735L11.3344 18.5761Z" fill="#8F97AB"/>
</svg>
