<svg width="27" height="22" viewBox="0 0 27 22" fill="none" xmlns="http://www.w3.org/2000/svg">
<path d="M0.764151 5.09461C0.342122 5.09461 0 5.43673 0 5.85876C0 6.28079 0.342122 6.62291 0.764151 6.62291V5.09461ZM3.31132 5.85876L3.6176 5.15867C3.52102 5.11642 3.41674 5.09461 3.31132 5.09461V5.85876ZM11.5147 9.44769L11.2085 10.1478L11.5147 9.44769ZM12.6464 12.3079L13.3488 12.6089L13.3488 12.6089L12.6464 12.3079ZM12.4497 12.767L11.7473 12.466L12.4497 12.767ZM9.58287 13.9137L9.88388 13.2113H9.88387L9.58287 13.9137ZM7.43309 12.161C7.04518 11.9947 6.59595 12.1744 6.42971 12.5623C6.26347 12.9503 6.44316 13.3995 6.83107 13.5657L7.43309 12.161ZM6.56169 20.2195L6.21996 20.903H6.21996L6.56169 20.2195ZM1.10588 16.6373C0.72841 16.4486 0.269406 16.6016 0.0806712 16.9791C-0.108063 17.3566 0.0449415 17.8156 0.422417 18.0043L1.10588 16.6373ZM15.9378 15.3558L16.2795 14.6723L15.9378 15.3558ZM12.5681 12.8167L11.8847 12.4749L11.2012 13.8419L11.8847 14.1836L12.5681 12.8167ZM0.764151 6.62291H3.31132V5.09461H0.764151V6.62291ZM3.00504 6.55884L11.2085 10.1478L11.821 8.74761L3.6176 5.15867L3.00504 6.55884ZM11.944 12.0069L11.7473 12.466L13.152 13.068L13.3488 12.6089L11.944 12.0069ZM9.88387 13.2113L7.43309 12.161L6.83107 13.5657L9.28186 14.616L9.88387 13.2113ZM11.7473 12.466C11.4386 13.1863 10.6043 13.52 9.88388 13.2113L9.28186 14.616C10.7781 15.2573 12.5108 14.5642 13.152 13.068L11.7473 12.466ZM11.2085 10.1478C11.9227 10.4603 12.2511 11.2904 11.944 12.0069L13.3488 12.6089C13.9866 11.1207 13.3044 9.39659 11.821 8.74761L11.2085 10.1478ZM18.867 16.8114H21.5054V15.2831H18.867V16.8114ZM22.9245 18.2305V18.9583H24.4528V18.2305H22.9245ZM21.5054 20.3774H10.4673V21.9057H21.5054V20.3774ZM6.90343 19.5361L1.10588 16.6373L0.422417 18.0043L6.21996 20.903L6.90343 19.5361ZM16.2795 14.6723L12.5681 12.8167L11.8847 14.1836L15.596 16.0393L16.2795 14.6723ZM10.4673 20.3774C9.23013 20.3774 8.00997 20.0893 6.90343 19.5361L6.21996 20.903C7.53871 21.5624 8.99287 21.9057 10.4673 21.9057V20.3774ZM22.9245 18.9583C22.9245 19.742 22.2892 20.3774 21.5054 20.3774V21.9057C23.1332 21.9057 24.4528 20.5861 24.4528 18.9583H22.9245ZM21.5054 16.8114C22.2892 16.8114 22.9245 17.4468 22.9245 18.2305H24.4528C24.4528 16.6027 23.1332 15.2831 21.5054 15.2831V16.8114ZM18.867 15.2831C17.9688 15.2831 17.0829 15.074 16.2795 14.6723L15.596 16.0393C16.6116 16.547 17.7315 16.8114 18.867 16.8114V15.2831ZM25.4717 5.8584C25.4717 8.24984 23.533 10.1885 21.1415 10.1885V11.7168C24.3771 11.7168 27 9.09392 27 5.8584H25.4717ZM21.1415 10.1885C18.75 10.1885 16.8113 8.24984 16.8113 5.8584H15.283C15.283 9.09392 17.906 11.7168 21.1415 11.7168V10.1885ZM16.8113 5.8584C16.8113 3.46697 18.75 1.5283 21.1415 1.5283V0C17.906 0 15.283 2.62288 15.283 5.8584H16.8113ZM21.1415 1.5283C23.533 1.5283 25.4717 3.46697 25.4717 5.8584H27C27 2.62288 24.3771 0 21.1415 0V1.5283Z" fill="#8F97AB"/>
</svg>
