<svg width="30" height="22" viewBox="0 0 30 22" fill="none" xmlns="http://www.w3.org/2000/svg">
<path d="M17.8475 10.9322H29.2373M17.8475 3.66828H29.2373M20.6949 18.1961H29.2373M12.1525 5.12107C12.1525 7.52812 10.2403 9.47942 7.88136 9.47942C5.52244 9.47942 3.61017 7.52812 3.61017 5.12107C3.61017 2.71401 5.52244 0.762712 7.88136 0.762712C10.2403 0.762712 12.1525 2.71401 12.1525 5.12107ZM15 16.7433C15 19.1504 11.8129 21.1017 7.88136 21.1017C3.94984 21.1017 0.762712 19.1504 0.762712 16.7433C0.762712 14.3363 3.94984 12.385 7.88136 12.385C11.8129 12.385 15 14.3363 15 16.7433Z" stroke="#8F97AB" stroke-width="1.5" stroke-linecap="round" stroke-linejoin="round"/>
</svg>
