<svg width="27" height="27" viewBox="0 0 27 27" fill="none" xmlns="http://www.w3.org/2000/svg">
<path fill-rule="evenodd" clip-rule="evenodd" d="M5.06244 0C2.26653 0 0 2.26653 0 5.06243V21.9372C0 24.7331 2.26653 26.9997 5.06243 26.9997H21.9372C24.7331 26.9997 26.9997 24.7331 26.9997 21.9372V5.06244C26.9997 2.26653 24.7331 0 21.9372 0H5.06244ZM21.5997 6.74992C22.3453 6.74992 22.9497 6.14551 22.9497 5.39993C22.9497 4.65436 22.3453 4.04995 21.5997 4.04995C20.8542 4.04995 20.2498 4.65436 20.2498 5.39993C20.2498 6.14551 20.8542 6.74992 21.5997 6.74992ZM20.2498 13.4998C20.2498 17.2277 17.2277 20.2498 13.4998 20.2498C9.77196 20.2498 6.74992 17.2277 6.74992 13.4998C6.74992 9.77196 9.77196 6.74992 13.4998 6.74992C17.2277 6.74992 20.2498 9.77196 20.2498 13.4998ZM13.4998 17.5498C15.7366 17.5498 17.5498 15.7366 17.5498 13.4998C17.5498 11.2631 15.7366 9.44988 13.4998 9.44988C11.2631 9.44988 9.44988 11.2631 9.44988 13.4998C9.44988 15.7366 11.2631 17.5498 13.4998 17.5498Z" fill="#8F97AB"/>
</svg>
