<svg width="24" height="26" viewBox="0 0 24 26" fill="none" xmlns="http://www.w3.org/2000/svg">
<path d="M15.0959 17.2824L16.342 18.5059M16.9651 3.21176H18.2113C20.9643 3.21176 23.1961 5.40294 23.1961 8.10588V20.3412C23.1961 23.0441 20.9643 25.2353 18.2113 25.2353H5.74945C2.99645 25.2353 0.764706 23.0441 0.764706 20.3412V8.10588C0.764706 5.40294 2.99645 3.21176 5.74946 3.21176H6.99564M16.9651 3.21176C16.9651 4.56324 15.8493 5.65882 14.4728 5.65882H9.48802C8.11152 5.65882 6.99564 4.56324 6.99564 3.21176M16.9651 3.21176C16.9651 1.86029 15.8493 0.764706 14.4728 0.764706H9.48802C8.11152 0.764706 6.99564 1.86029 6.99564 3.21176M15.719 14.2235C15.719 16.2507 14.0451 17.8941 11.9804 17.8941C9.91564 17.8941 8.24183 16.2507 8.24183 14.2235C8.24183 12.1963 9.91564 10.5529 11.9804 10.5529C14.0451 10.5529 15.719 12.1963 15.719 14.2235Z" stroke="#8F97AB" stroke-width="1.5" stroke-linecap="round"/>
</svg>
