<svg width="26" height="24" viewBox="0 0 26 24" fill="none" xmlns="http://www.w3.org/2000/svg">
<path d="M15.6016 0.764706H19.0584C19.8015 0.764706 20.5092 1.09246 21.0029 1.66529L24.5781 5.81362C25.4079 6.77633 25.4572 8.2113 24.6958 9.23224L15.0621 22.1488C14.0207 23.5452 11.9793 23.5452 10.9379 22.1488L1.30422 9.23225C0.542764 8.2113 0.592139 6.77633 1.42186 5.81362L4.99712 1.66529C5.49082 1.09245 6.19847 0.764706 6.94159 0.764706H10.6875M15.6016 0.764706L18.2032 7.47275M15.6016 0.764706H10.6875M18.2032 7.47275H24.7073M18.2032 7.47275L13 22.9013L7.79677 7.47275M18.2032 7.47275H7.79677M10.6875 0.764706L7.79677 7.47275M1.29274 7.47275H7.79677" stroke="#8F97AB" stroke-width="1.5" stroke-linecap="round" stroke-linejoin="round"/>
</svg>
