<svg width="27" height="27" viewBox="0 0 27 27" fill="none" xmlns="http://www.w3.org/2000/svg">
<path fill-rule="evenodd" clip-rule="evenodd" d="M5.06248 0C2.26655 0 0 2.26655 0 5.06248V21.9374C0 24.7334 2.26655 26.9999 5.06248 26.9999H21.9374C24.7334 26.9999 26.9999 24.7334 26.9999 21.9374V5.06248C26.9999 2.26655 24.7334 0 21.9374 0H5.06248ZM21.5999 6.74998C22.3455 6.74998 22.9499 6.14557 22.9499 5.39998C22.9499 4.6544 22.3455 4.04999 21.5999 4.04999C20.8544 4.04999 20.2499 4.6544 20.2499 5.39998C20.2499 6.14557 20.8544 6.74998 21.5999 6.74998ZM20.2499 13.5C20.2499 17.2279 17.2279 20.2499 13.5 20.2499C9.77205 20.2499 6.74998 17.2279 6.74998 13.5C6.74998 9.77205 9.77205 6.74998 13.5 6.74998C17.2279 6.74998 20.2499 9.77205 20.2499 13.5ZM13.5 17.5499C15.7367 17.5499 17.5499 15.7367 17.5499 13.5C17.5499 11.2632 15.7367 9.44997 13.5 9.44997C11.2632 9.44997 9.44997 11.2632 9.44997 13.5C9.44997 15.7367 11.2632 17.5499 13.5 17.5499Z" fill="#8F97AB"/>
</svg>
