<svg width="24" height="24" viewBox="0 0 24 24" fill="none" xmlns="http://www.w3.org/2000/svg">
<path d="M11.7119 15.7448L8.25532 12.2882M11.7119 15.7448C13.3214 15.1327 14.8654 14.3607 16.3208 13.4404M11.7119 15.7448V21.5057C11.7119 21.5057 15.2031 20.872 16.3208 19.2014C17.5652 17.3348 16.3208 13.4404 16.3208 13.4404M8.25532 12.2882C8.86846 10.6975 9.64051 9.17273 10.5597 7.73702C11.9023 5.59047 13.7717 3.82307 15.9901 2.60295C18.2085 1.38282 20.7023 0.75054 23.234 0.766243C23.234 3.90021 22.3353 9.4077 16.3208 13.4404M8.25532 12.2882H2.49427C2.49427 12.2882 3.12799 8.79704 4.79869 7.67941C6.66527 6.43504 10.5597 7.67941 10.5597 7.67941M3.07038 17.4731C1.34206 18.9248 0.765957 23.234 0.765957 23.234C0.765957 23.234 5.07522 22.6579 6.52701 20.9297C7.34507 19.9618 7.33355 18.4755 6.42331 17.5768C5.97545 17.1493 5.3855 16.9023 4.76669 16.8832C4.14788 16.864 3.54379 17.0741 3.07038 17.4731Z" stroke="#8F97AB" stroke-width="1.5" stroke-linecap="round" stroke-linejoin="round"/>
</svg>
